# xmcd
#
# Track frame offsets: 
#        150
#        22778
#        39275
#        52934
#        74205
#        85342
#        106747
#        118111
#        139756
#        154772
#
# Disc length: 2332 seconds
#
# Revision: 3
# Processed by: cddbd v1.5.2PL0 Copyright (c) Steve Scherf et al.
# Submitted via: ExactAudioCopyFreeDBPlugin 1.0
#
DISCID=7c091a0a
DTITLE=Michel Jonasz - Unis Vers L'Uni
DYEAR=1985
DGENRE=Chanson
TTITLE0=Unis Vers L'Uni
TTITLE1=Nos Deux Noms
TTITLE2=La Boite de Jazz
TTITLE3=Les Traces Derrière Nous
TTITLE4=Les Lignes Téléphoniques
TTITLE5=Ray Charles
TTITLE6=Le Coeur d'un Enfant
TTITLE7=La F.M. Qui s'est spécialisée Funky
TTITLE8=La Bossa
TTITLE9=Toutes Ces Choses
EXTD=
EXTT0=
EXTT1=
EXTT2=
EXTT3=
EXTT4=
EXTT5=
EXTT6=
EXTT7=
EXTT8=
EXTT9=
PLAYORDER=
